<svg id="Layer_1" data-name="Layer 1" xmlns="http://www.w3.org/2000/svg" viewBox="0 0 54 52"><defs><style>.cls-1{fill:none;stroke:#f56200;stroke-width:4px;}.cls-2{isolation:isolate;}.cls-3{fill:#f56200;}</style></defs><path id="Rectangle-Copy-5" class="cls-1" d="M26,2h2A24,24,0,0,1,52,26h0A24,24,0,0,1,28,50H26A24,24,0,0,1,2,26H2A24,24,0,0,1,26,2Z"/><g class="cls-2"><path class="cls-3" d="M24.42,31.1v2.81H13.84a7.15,7.15,0,0,1,1-3,19.91,19.91,0,0,1,3.39-3.77,20.88,20.88,0,0,0,2.5-2.58,3.29,3.29,0,0,0,.63-1.85,2.07,2.07,0,0,0-.55-1.55,2,2,0,0,0-1.49-.54,2,2,0,0,0-1.51.57,3,3,0,0,0-.64,1.89l-3-.3a4.9,4.9,0,0,1,1.69-3.58,5.66,5.66,0,0,1,3.54-1.09,5.08,5.08,0,0,1,3.66,1.26,4.13,4.13,0,0,1,1.34,3.13,5.49,5.49,0,0,1-.38,2,8.69,8.69,0,0,1-1.21,2,20.62,20.62,0,0,1-2,2c-1,.88-1.56,1.46-1.81,1.74a6,6,0,0,0-.62.84Z"/><path class="cls-3" d="M25.52,33.91l5.38-8.22L26,18.16h3.71l3.16,5.06L36,18.16h3.68l-4.9,7.65,5.38,8.1H36.33l-3.49-5.45-3.5,5.45Z"/></g></svg>